<svg width="633" height="86" viewBox="0 0 633 86" fill="none" xmlns="http://www.w3.org/2000/svg">
<path d="M123.192 1.13677H119.445V18.3547H123.216L131.28 6.79337V18.3547H135.026V1.13677H131.23L123.192 12.6236V1.13677Z" fill="white"/>
<path d="M153.002 1.13677V7.885H145.087V1.13677H141.291V18.3547H145.087V11.3583H153.002V18.3547H156.773V1.13677H153.002Z" fill="white"/>
<path d="M171.823 9.39838L165.62 1.13677H161.403L167.357 9.10067L160.956 18.3547H165.422L171.823 9.39838ZM171.823 18.3547H175.594V1.13677H171.823V18.3547ZM175.594 9.37358L181.995 18.3547H186.46L180.059 9.10067L186.038 1.13677H181.796L175.594 9.37358Z" fill="white"/>
<path d="M190.653 18.3547H203.802V14.8813H194.449V11.3087H200.974V7.95942H194.449V4.61012H203.703V1.13677H190.653V18.3547Z" fill="white"/>
<path d="M220.793 1.13677V7.885H212.879V1.13677H209.083V18.3547H212.879V11.3583H220.793V18.3547H224.564V1.13677H220.793Z" fill="white"/>
<path d="M230.856 18.3547H244.005V14.8813H234.652V11.3087H241.177V7.95942H234.652V4.61012H243.906V1.13677H230.856V18.3547Z" fill="white"/>
<path d="M255.91 9.10067H253.082V4.5605H255.91C257.448 4.5605 258.441 5.47846 258.441 6.79337C258.441 8.13309 257.448 9.10067 255.91 9.10067ZM249.286 18.3547H253.082V12.4004H256.059C259.582 12.4004 262.336 10.4156 262.336 6.79337C262.336 3.14635 259.632 1.13677 256.059 1.13677H249.286V18.3547Z" fill="white"/>
<path d="M278.893 1.13677V7.885H270.979V1.13677H267.183V18.3547H270.979V11.3583H278.893V18.3547H282.664V1.13677H278.893Z" fill="white"/>
<path d="M286.947 18.3547H290.867L292.182 15.0798H299.699L300.989 18.3547H305.033L297.913 1.13677H294.042L286.947 18.3547ZM293.521 11.6809L295.928 5.60251L298.334 11.6809H293.521Z" fill="white"/>
<path d="M307.563 18.3547H311.88L315.601 12.4252H318.281V18.3547H322.052V1.13677H315.031C311.408 1.13677 308.704 3.19597 308.704 6.76856C308.704 9.05105 310.019 10.7629 311.83 11.6809L307.563 18.3547ZM312.575 6.84299C312.575 5.50327 313.592 4.63493 315.254 4.63493H318.281V9.10067H315.279C313.666 9.10067 312.575 8.18271 312.575 6.84299Z" fill="white"/>
<path d="M336.226 18.3547H358.158V1.13677H354.387V14.8565H349.078V1.13677H345.307V14.8565H339.998V1.13677H336.226V18.3547Z" fill="white"/>
<path d="M368.24 18.3547V1.13677H364.445V18.3547H368.24ZM368.24 8.77814L375.286 18.3547H379.752L372.632 8.62929L378.66 1.13677H374.468L368.24 8.77814Z" fill="white"/>
<path d="M390.328 15.0054C387.375 15.0054 385.118 12.7477 385.118 9.74572C385.118 6.74375 387.375 4.48607 390.328 4.48607C393.255 4.48607 395.513 6.76856 395.513 9.74572C395.513 12.7229 393.255 15.0054 390.328 15.0054ZM381.223 9.74572C381.223 14.8317 385.093 18.6028 390.328 18.6028C395.538 18.6028 399.408 14.8317 399.408 9.74572C399.408 4.65974 395.538 0.888672 390.328 0.888672C385.093 0.888672 381.223 4.65974 381.223 9.74572Z" fill="white"/>
<path d="M403.345 18.4787C407.265 18.4787 408.828 16.097 408.828 12.5244V4.61012H414.832V18.3547H418.603V1.13677H405.206V12.2763C405.206 14.2859 404.437 15.0054 402.923 15.0054H401.956V18.4787H403.345Z" fill="white"/>
<path d="M422.885 18.3547H426.805L428.12 15.0798H435.637L436.928 18.3547H440.971L433.851 1.13677H429.981L422.885 18.3547ZM429.46 11.6809L431.866 5.60251L434.273 11.6809H429.46Z" fill="white"/>
<path d="M123.192 34.6016H119.445V51.8195H123.216L131.28 40.2582V51.8195H135.026V34.6016H131.23L123.192 46.0884V34.6016Z" fill="white"/>
<path d="M153.002 34.6016V41.3498H145.087V34.6016H141.291V51.8195H145.087V44.8231H153.002V51.8195H156.773V34.6016H153.002Z" fill="white"/>
<path d="M169.689 50.6038H170.185V52.5638H173.931V50.6038H174.403C178.348 50.6038 182.416 47.8747 182.416 43.012C182.416 38.1493 178.348 35.4203 174.403 35.4203H173.931V33.4355H170.185V35.4203H169.689C165.769 35.4203 161.725 38.1493 161.725 43.012C161.725 47.8747 165.769 50.6038 169.689 50.6038ZM165.521 43.012C165.521 40.0349 167.903 38.7448 169.689 38.7448H170.185V47.3041H169.689C167.903 47.3041 165.521 45.9892 165.521 43.012ZM173.931 47.3041V38.7448H174.403C176.189 38.7448 178.571 40.0349 178.571 43.012C178.571 45.9892 176.189 47.3041 174.403 47.3041H173.931Z" fill="white"/>
<path d="M195.247 48.4702C192.295 48.4702 190.037 46.2125 190.037 43.2105C190.037 40.2085 192.295 37.9509 195.247 37.9509C198.175 37.9509 200.433 40.2334 200.433 43.2105C200.433 46.1877 198.175 48.4702 195.247 48.4702ZM186.142 43.2105C186.142 48.2965 190.013 52.0676 195.247 52.0676C200.457 52.0676 204.328 48.2965 204.328 43.2105C204.328 38.1245 200.457 34.3535 195.247 34.3535C190.013 34.3535 186.142 38.1245 186.142 43.2105Z" fill="white"/>
<path d="M216.046 42.5655H213.218V38.0253H216.046C217.584 38.0253 218.577 38.9432 218.577 40.2582C218.577 41.5979 217.584 42.5655 216.046 42.5655ZM209.422 51.8195H213.218V45.8651H216.195C219.718 45.8651 222.472 43.8804 222.472 40.2582C222.472 36.6111 219.768 34.6016 216.195 34.6016H209.422V51.8195Z" fill="white"/>
<path d="M227.319 51.8195H231.016V39.3898L236.399 45.8651L241.758 39.3402V51.8195H245.43V34.6016H241.485L236.399 40.6303L231.313 34.6016H227.319V51.8195Z" fill="white"/>
<path d="M249.724 51.8195H253.643L254.958 48.5446H262.476L263.766 51.8195H267.81L260.689 34.6016H256.819L249.724 51.8195ZM256.298 45.1457L258.705 39.0673L261.111 45.1457H256.298Z" fill="white"/>
<path d="M289.369 48.3213H287.31V34.6016H283.538V48.3213H275.872V34.6016H272.101V51.8195H285.697V55.268H289.369V48.3213Z" fill="white"/>
<path d="M297.912 34.6016H294.165V51.8195H297.936L306 40.2582V51.8195H309.746V34.6016H305.95L297.912 46.0884V34.6016Z" fill="white"/>
<path d="M323.901 48.4702C320.949 48.4702 318.691 46.2125 318.691 43.2105C318.691 40.2085 320.949 37.9509 323.901 37.9509C326.828 37.9509 329.086 40.2334 329.086 43.2105C329.086 46.1877 326.828 48.4702 323.901 48.4702ZM314.796 43.2105C314.796 48.2965 318.666 52.0676 323.901 52.0676C329.111 52.0676 332.981 48.2965 332.981 43.2105C332.981 38.1245 329.111 34.3535 323.901 34.3535C318.666 34.3535 314.796 38.1245 314.796 43.2105Z" fill="white"/>
<path d="M349.786 34.6016V41.3498H341.871V34.6016H338.076V51.8195H341.871V44.8231H349.786V51.8195H353.557V34.6016H349.786Z" fill="white"/>
<path d="M371.559 34.6016V41.3498H363.645V34.6016H359.849V51.8195H363.645V44.8231H371.559V51.8195H375.33V34.6016H371.559Z" fill="white"/>
<path d="M400.527 34.6016H396.731V51.8195H400.527V34.6016ZM381.622 51.8195H388.47C392.142 51.8195 394.796 49.8099 394.796 46.1381C394.796 42.5406 392.092 40.5311 388.445 40.5311H385.393V34.6016H381.622V51.8195ZM385.393 48.3957V43.8556H388.321C389.934 43.8556 390.926 44.7735 390.926 46.1381C390.926 47.5026 389.934 48.3957 388.321 48.3957H385.393Z" fill="white"/>
<path d="M409.689 34.6016H405.099L411.475 43.0865L404.851 51.8195H409.193L413.808 45.8155L418.447 51.8195H423.086L416.462 43.0865L422.814 34.6016H418.497L414.13 40.4566L409.689 34.6016Z" fill="white"/>
<path d="M433.652 38.0997H439.358V51.8195H443.129V38.0997H448.86V34.6016H433.652V38.0997Z" fill="white"/>
<path d="M453.549 51.8195H466.698V48.3461H457.345V44.7735H463.87V41.4242H457.345V38.0749H466.599V34.6016H453.549V51.8195Z" fill="white"/>
<path d="M474.832 34.6016H470.242L476.618 43.0865L469.994 51.8195H474.336L478.95 45.8155L483.59 51.8195H488.229L481.605 43.0865L487.956 34.6016H483.639L479.273 40.4566L474.832 34.6016Z" fill="white"/>
<path d="M504.251 34.6016V41.3498H496.337V34.6016H492.541V51.8195H496.337V44.8231H504.251V51.8195H508.022V34.6016H504.251Z" fill="white"/>
<path d="M522.204 48.4702C519.251 48.4702 516.994 46.2125 516.994 43.2105C516.994 40.2085 519.251 37.9509 522.204 37.9509C525.131 37.9509 527.389 40.2334 527.389 43.2105C527.389 46.1877 525.131 48.4702 522.204 48.4702ZM513.099 43.2105C513.099 48.2965 516.969 52.0676 522.204 52.0676C527.414 52.0676 531.284 48.2965 531.284 43.2105C531.284 38.1245 527.414 34.3535 522.204 34.3535C516.969 34.3535 513.099 38.1245 513.099 43.2105Z" fill="white"/>
<path d="M535.221 51.9435C539.141 51.9435 540.704 49.5618 540.704 45.9892V38.0749H546.708V51.8195H550.479V34.6016H537.082V45.7411C537.082 47.7507 536.313 48.4702 534.799 48.4702H533.832V51.9435H535.221Z" fill="white"/>
<path d="M564.66 48.4702C561.708 48.4702 559.45 46.2125 559.45 43.2105C559.45 40.2085 561.708 37.9509 564.66 37.9509C567.588 37.9509 569.845 40.2334 569.845 43.2105C569.845 46.1877 567.588 48.4702 564.66 48.4702ZM555.555 43.2105C555.555 48.2965 559.425 52.0676 564.66 52.0676C569.87 52.0676 573.741 48.2965 573.741 43.2105C573.741 38.1245 569.87 34.3535 564.66 34.3535C559.425 34.3535 555.555 38.1245 555.555 43.2105Z" fill="white"/>
<path d="M590.818 34.6016H578.835V51.8195H582.606V38.0997H590.818V34.6016Z" fill="white"/>
<path d="M599.218 34.6016H595.472V51.8195H599.243L607.306 40.2582V51.8195H611.052V34.6016H607.256L599.218 46.0884V34.6016Z" fill="white"/>
<path d="M621.064 34.6016H617.318V51.8195H621.089L629.152 40.2582V51.8195H632.898V34.6016H629.103L621.064 46.0884V34.6016ZM620.742 29.0938C620.742 31.6988 622.627 33.2866 625.059 33.2866C627.49 33.2866 629.351 31.6988 629.351 29.0938H626.597C626.597 30.0366 625.977 30.8553 625.059 30.8553C624.116 30.8553 623.545 30.0366 623.545 29.0938H620.742Z" fill="white"/>
<path d="M123.192 67.5742H119.445V84.7921H123.216L131.28 73.2308V84.7921H135.026V67.5742H131.23L123.192 79.0611V67.5742Z" fill="white"/>
<path d="M155.782 75.5381H152.954V70.9979H155.782C157.32 70.9979 158.313 71.9159 158.313 73.2308C158.313 74.5705 157.32 75.5381 155.782 75.5381ZM149.158 84.7921H152.954V78.8378H155.931C159.454 78.8378 162.208 76.853 162.208 73.2308C162.208 69.5838 159.503 67.5742 155.931 67.5742H149.158V84.7921Z" fill="white"/>
<path d="M174.702 81.4428C171.749 81.4428 169.492 79.1851 169.492 76.1832C169.492 73.1812 171.749 70.9235 174.702 70.9235C177.629 70.9235 179.887 73.206 179.887 76.1832C179.887 79.1603 177.629 81.4428 174.702 81.4428ZM165.597 76.1832C165.597 81.2691 169.467 85.0402 174.702 85.0402C179.912 85.0402 183.782 81.2691 183.782 76.1832C183.782 71.0972 179.912 67.3261 174.702 67.3261C169.467 67.3261 165.597 71.0972 165.597 76.1832Z" fill="white"/>
<path d="M196.518 74.1488H192.648V71.0724H201.132V67.5742H188.876V84.7921H196.518C200.239 84.7921 202.472 82.5841 202.472 79.4084C202.472 75.9847 200.066 74.1488 196.518 74.1488ZM192.648 81.5421V77.1507H196.046C197.609 77.1507 198.602 77.9447 198.602 79.3092C198.602 80.6489 197.609 81.5421 196.046 81.5421H192.648Z" fill="white"/>
<path d="M215.196 81.4428C212.243 81.4428 209.986 79.1851 209.986 76.1832C209.986 73.1812 212.243 70.9235 215.196 70.9235C218.123 70.9235 220.381 73.206 220.381 76.1832C220.381 79.1603 218.123 81.4428 215.196 81.4428ZM206.091 76.1832C206.091 81.2691 209.961 85.0402 215.196 85.0402C220.406 85.0402 224.276 81.2691 224.276 76.1832C224.276 71.0972 220.406 67.3261 215.196 67.3261C209.961 67.3261 206.091 71.0972 206.091 76.1832Z" fill="white"/>
<path d="M227.055 71.0724H232.761V84.7921H236.533V71.0724H242.264V67.5742H227.055V71.0724Z" fill="white"/>
<path d="M254.139 81.4428C251.187 81.4428 248.929 79.1851 248.929 76.1832C248.929 73.1812 251.187 70.9235 254.139 70.9235C257.067 70.9235 259.324 73.206 259.324 76.1832C259.324 79.1603 257.067 81.4428 254.139 81.4428ZM245.034 76.1832C245.034 81.2691 248.904 85.0402 254.139 85.0402C259.349 85.0402 263.22 81.2691 263.22 76.1832C263.22 71.0972 259.349 67.3261 254.139 67.3261C248.904 67.3261 245.034 71.0972 245.034 76.1832Z" fill="white"/>
<path d="M265.999 71.0724H271.705V84.7921H275.476V71.0724H281.207V67.5742H265.999V71.0724Z" fill="white"/>
<path d="M285.896 84.7921H299.045V81.3188H289.692V77.7462H296.217V74.3969H289.692V71.0476H298.946V67.5742H285.896V84.7921Z" fill="white"/>
<path d="M307.179 67.5742H302.589L308.965 76.0591L302.341 84.7921H306.683L311.297 78.7882L315.937 84.7921H320.576L313.952 76.0591L320.303 67.5742H315.986L311.62 73.4293L307.179 67.5742Z" fill="white"/>
<path d="M336.598 67.5742V74.3224H328.684V67.5742H324.888V84.7921H328.684V77.7958H336.598V84.7921H340.369V67.5742H336.598Z" fill="white"/>
<path d="M350.407 67.5742H346.661V84.7921H350.432L358.495 73.2308V84.7921H362.242V67.5742H358.446L350.407 79.0611V67.5742Z" fill="white"/>
<path d="M372.303 84.7921V67.5742H368.507V84.7921H372.303ZM372.303 75.2156L379.349 84.7921H383.815L376.694 75.0667L382.723 67.5742H378.53L372.303 75.2156Z" fill="white"/>
<path d="M391.652 67.5742H387.906V84.7921H391.677L399.74 73.2308V84.7921H403.487V67.5742H399.691L391.652 79.0611V67.5742Z" fill="white"/>
<path d="M57.7434 33.4178L43.4945 28.2319L29.2441 33.4178L29.2456 51.5453L43.4945 56.7312L57.7434 51.5453V33.4178Z" fill="#3B7698"/>
<path d="M85.9326 5.17034L85.9356 5.16892L71.7375 0.0390625L57.5394 5.16892L43.3399 0.0390625L29.1374 5.17034L14.9422 0.0390625L0.744141 5.16892V23.1004L14.9422 28.2319L29.1418 23.1004L43.3399 28.2319L57.5394 23.1004L71.7375 28.2319L85.9356 23.1004V5.16892L85.9326 5.17034Z" fill="white"/>
<path d="M29.2434 5.09455L14.9945 10.1517L0.744141 5.09455L14.9945 0.0390625L29.2434 5.09455Z" fill="#3B7698"/>
<path d="M57.7434 5.09455L43.4945 10.1517L29.2441 5.09455L43.4945 0.0390625L57.7434 5.09455Z" fill="#3B7698"/>
<path d="M85.937 5.09455L71.8398 10.1517L57.7441 5.09455L71.8398 0.0390625L85.937 5.09455Z" fill="#3B7698"/>
<path d="M57.7405 33.4422L43.4923 38.6213L29.2441 33.4404V51.5496L43.4938 56.7302L57.7434 51.5496L57.7405 33.4422Z" fill="white"/>
<path d="M57.7434 61.8618L43.4945 56.7314L29.2441 61.8618L29.2456 79.794L43.4945 84.9243L57.7434 79.794V61.8618Z" fill="#3B7698"/>
<path d="M57.7405 61.9418L43.4923 67.0529L29.2441 61.9404V79.811L43.4938 84.9237L57.7434 79.811L57.7405 61.9418Z" fill="white"/>
<path fill-rule="evenodd" clip-rule="evenodd" d="M80.3402 39.1537L75.6965 38.0756L71.1225 37.0136L70.4616 36.8602C69.9446 36.8737 69.4264 37.1981 68.9365 37.8333L65.9208 41.7692C65.4573 42.3674 65.4573 42.5928 65.9208 43.1896L68.9365 47.1254C69.4264 47.7606 69.9446 48.085 70.4616 48.0985L71.1223 47.9452L75.6967 46.8834L80.3349 45.8068C80.5156 45.7258 80.698 45.6836 80.8807 45.6801C81.4171 45.6699 81.956 45.994 82.4637 46.6524L85.937 51.5356L71.8398 56.7312L57.7441 51.5356V33.4113L71.8398 28.2319L85.937 33.4113L82.4637 38.3108C81.9568 38.9678 81.4179 39.2908 80.8807 39.2792C80.6999 39.2752 80.5193 39.2334 80.3402 39.1537Z" fill="#3B7698"/>
<path fill-rule="evenodd" clip-rule="evenodd" d="M80.3402 67.3475L75.6965 66.2694L71.1225 65.2074L70.4616 65.054C69.9446 65.0676 69.4264 65.392 68.9364 66.0272L65.9208 69.963C65.4573 70.5613 65.4573 70.7867 65.9208 71.3834L68.9364 75.3192C69.4264 75.9544 69.9446 76.2788 70.4616 76.2924L71.1223 76.139L75.6967 75.0772L80.3349 74.0006C80.5156 73.9196 80.698 73.8774 80.8807 73.8739C81.4171 73.8637 81.956 74.1878 82.4637 74.8462L85.937 79.7295L71.8398 84.9251L57.7441 79.7295V61.6052L71.8398 56.4258L85.937 61.6052L82.4637 66.5046C81.9568 67.1617 81.4179 67.4847 80.8807 67.473C80.6999 67.4691 80.5193 67.4273 80.3402 67.3475Z" fill="#3B7698"/>
<path fill-rule="evenodd" clip-rule="evenodd" d="M6.64806 39.1537L11.2918 38.0756L15.8658 37.0136L16.5267 36.8602C17.0437 36.8737 17.5619 37.1981 18.0518 37.8333L21.0674 41.7692C21.5309 42.3674 21.5309 42.5928 21.0674 43.1896L18.0518 47.1254C17.5619 47.7606 17.0437 48.085 16.5267 48.0985L15.866 47.9452L11.2916 46.8834L6.65343 45.8068C6.47265 45.7258 6.29027 45.6836 6.10762 45.6801C5.57113 45.6699 5.03226 45.994 4.52457 46.6524L1.05129 51.5356L15.1484 56.7312L29.2441 51.5356V33.4113L15.1484 28.2319L1.05129 33.4113L4.52457 38.3108C5.03146 38.9678 5.57039 39.2908 6.10762 39.2792C6.28838 39.2752 6.46896 39.2334 6.64806 39.1537Z" fill="#3B7698"/>
<path fill-rule="evenodd" clip-rule="evenodd" d="M6.64806 67.3475L11.2918 66.2694L15.8658 65.2074L16.5267 65.054C17.0437 65.0676 17.5619 65.392 18.0518 66.0272L21.0674 69.963C21.5309 70.5613 21.5309 70.7867 21.0674 71.3834L18.0518 75.3192C17.5619 75.9544 17.0437 76.2788 16.5267 76.2924L15.866 76.139L11.2916 75.0772L6.65343 74.0006C6.47265 73.9196 6.29027 73.8774 6.10762 73.8739C5.57113 73.8637 5.03226 74.1878 4.52457 74.8462L1.05129 79.7295L15.1484 84.9251L29.2441 79.7295V61.6052L15.1484 56.4258L1.05129 61.6052L4.52457 66.5046C5.03146 67.1617 5.57039 67.4847 6.10762 67.473C6.28838 67.4691 6.46896 67.4273 6.64806 67.3475Z" fill="#3B7698"/>
</svg>
